<?xml version="1.0" encoding="utf-8"?>
<!-- Generator: Adobe Illustrator 19.2.0, SVG Export Plug-In . SVG Version: 6.00 Build 0)  -->
<svg version="1.1" id="Capa_1" xmlns="http://www.w3.org/2000/svg" xmlns:xlink="http://www.w3.org/1999/xlink" x="0px" y="0px"
	 viewBox="0 0 512 512" style="enable-background:new 0 0 512 512;" xml:space="preserve">
<style type="text/css">
	.st0{fill:#232323;}
</style>
<path class="st0" d="M0,0v512h512V0H0z M171.9,406.7h-60.1V197h60.1L171.9,406.7L171.9,406.7z M142.4,173.1
	c-20.1,0-36.5-15.2-36.5-33.9s16.4-33.9,36.5-33.9s36.5,15.2,36.5,33.9S162.6,173.1,142.4,173.1z M406.1,406.7h-61.5V282.3
	c0-0.3,0.9-20-10.3-31.8c-5.6-5.9-13.2-8.8-22.8-8.8c-24.1,0-36.2,17.3-41.4,27.8v137.2H210V197h60.1v17.7
	c19.7-16,41.7-24.4,64-24.4c57,0,72,44.5,72,68L406.1,406.7L406.1,406.7z"/>
</svg>
