<?xml version="1.0" encoding="utf-8"?>
<!-- Generator: Adobe Illustrator 19.2.0, SVG Export Plug-In . SVG Version: 6.00 Build 0)  -->
<svg version="1.1" id="Layer_1" xmlns="http://www.w3.org/2000/svg" xmlns:xlink="http://www.w3.org/1999/xlink" x="0px" y="0px"
	 viewBox="0 0 36.6 26.5" style="enable-background:new 0 0 36.6 26.5;" xml:space="preserve">
<style type="text/css">
	.st0{fill:#FFFFFF;}
</style>
<path class="st0" d="M33,7.1H3.7C2.4,7.1,1.2,6,1.2,4.6v0c0-1.4,1.1-2.5,2.5-2.5H33c1.4,0,2.5,1.1,2.5,2.5v0C35.5,6,34.4,7.1,33,7.1
	z"/>
<path class="st0" d="M33,15.9H3.7c-1.4,0-2.5-1.1-2.5-2.5v0c0-1.4,1.1-2.5,2.5-2.5H33c1.4,0,2.5,1.1,2.5,2.5v0
	C35.5,14.8,34.4,15.9,33,15.9z"/>
<path class="st0" d="M32.8,24.6H3.5c-1.4,0-2.5-1.1-2.5-2.5v0c0-1.4,1.1-2.5,2.5-2.5h29.3c1.4,0,2.5,1.1,2.5,2.5v0
	C35.2,23.5,34.1,24.6,32.8,24.6z"/>
</svg>
