<?xml version="1.0" encoding="utf-8"?>
<!-- Generator: Adobe Illustrator 19.2.0, SVG Export Plug-In . SVG Version: 6.00 Build 0)  -->
<svg version="1.1" id="Capa_1" xmlns="http://www.w3.org/2000/svg" xmlns:xlink="http://www.w3.org/1999/xlink" x="0px" y="0px"
	 viewBox="0 0 512 512" style="enable-background:new 0 0 512 512;" xml:space="preserve">
<style type="text/css">
	.st0{fill:#232323;}
</style>
<g>
	<path class="st0" d="M0,0v512h512V0H0z M380.1,192.4c0.1,2.8,0.2,5.5,0.2,8.3c0,84.6-64.3,182.1-182.1,182.1
		c-36.2,0-69.8-10.6-98.1-28.8c5,0.6,10.1,0.9,15.3,0.9c30,0,57.6-10.2,79.5-27.4c-28-0.5-51.6-19-59.8-44.4c3.9,0.8,7.9,1.1,12,1.1
		c5.8,0,11.5-0.8,16.9-2.3c-29.2-5.9-51.3-31.7-51.3-62.8c0-0.3,0-0.5,0-0.8c8.7,4.8,18.5,7.7,29,8c-17.2-11.5-28.5-31.1-28.5-53.3
		c0-11.7,3.2-22.7,8.7-32.2c31.6,38.7,78.7,64.2,131.9,66.9c-1.1-4.7-1.7-9.6-1.7-14.6c0-35.3,28.7-64,64-64
		c18.4,0,35,7.8,46.7,20.2c14.6-2.9,28.3-8.2,40.7-15.5c-4.8,15-14.9,27.5-28.1,35.4c13-1.6,25.3-5,36.8-10.1
		C403.4,172.1,392.6,183.3,380.1,192.4z"/>
</g>
</svg>
